<svg version="1.1" xmlns="http://www.w3.org/2000/svg" xmlns:xlink="http://www.w3.org/1999/xlink" width="497.33861" height="404.77913" viewBox="0,0,497.33861,404.77913"><defs><radialGradient cx="14.96432" cy="274.18387" r="69" gradientUnits="userSpaceOnUse" id="color-1"><stop offset="0" stop-color="#b6d8ff"/><stop offset="1" stop-color="#5eabff"/></radialGradient><radialGradient cx="420.08169" cy="192.03733" r="34.92343" gradientUnits="userSpaceOnUse" id="color-2"><stop offset="0" stop-color="#b6d8ff"/><stop offset="1" stop-color="#5eabff"/></radialGradient><radialGradient cx="331.70414" cy="11.46643" r="21.27826" gradientUnits="userSpaceOnUse" id="color-3"><stop offset="0" stop-color="#b6d8ff"/><stop offset="1" stop-color="#5eabff"/></radialGradient><radialGradient cx="3.49389" cy="-0.90385" r="56.11701" gradientUnits="userSpaceOnUse" id="color-4"><stop offset="0" stop-color="#b6d8ff"/><stop offset="1" stop-color="#5eabff"/></radialGradient></defs><g transform="translate(25.3779,37.09526)"><g data-paper-data="{&quot;isPaintingLayer&quot;:true}" fill-rule="nonzero" stroke="none" stroke-width="none" stroke-linecap="butt" stroke-linejoin="miter" stroke-miterlimit="10" stroke-dasharray="" stroke-dashoffset="0" style="mix-blend-mode: normal"><path d="M-20.53568,298.68387c0,-38.10765 30.89235,-69 69,-69c38.10765,0 69,30.89235 69,69c0,38.10765 -30.89235,69 -69,69c-38.10765,0 -69,-30.89235 -69,-69z" fill="url(#color-1)"/><path d="M402.11384,204.43768c0,-19.28768 15.63575,-34.92343 34.92343,-34.92343c19.28768,0 34.92343,15.63575 34.92343,34.92343c0,19.28768 -15.63575,34.92343 -34.92343,34.92343c-19.28768,0 -34.92343,-15.63575 -34.92343,-34.92343z" fill="url(#color-2)"/><path d="M320.75664,19.02175c0,-11.75166 9.5266,-21.27826 21.27826,-21.27826c11.75166,0 21.27826,9.5266 21.27826,21.27826c0,11.75166 -9.5266,21.27826 -21.27826,21.27826c-11.75166,0 -21.27826,-9.5266 -21.27826,-21.27826z" fill="url(#color-3)"/><path d="M-25.3779,19.02175c0,-30.99257 25.12444,-56.11701 56.11701,-56.11701c30.99257,0 56.11701,25.12444 56.11701,56.11701c0,30.99257 -25.12444,56.11701 -56.11701,56.11701c-30.99257,0 -56.11701,-25.12444 -56.11701,-56.11701z" fill="url(#color-4)"/></g></g></svg>